# xmcd
#
# Track frame offsets: 
#        150
#        12216
#        28695
#        39519
#        54329
#        73040
#        86903
#        103298
#        120020
#        135981
#        142371
#        149565
#        168551
#        175876
#        192618
#        202384
#        215647
#        227266
#        240090
#        243635
#
# Disc length: 3404 seconds
#
# Revision: 0
# Processed by: cddbd v1.5.1PL0 Copyright (c) Steve Scherf et al.
# Submitted via: ExactAudioCopy v0.95a5
#
DISCID=2a0d4a14
DTITLE=Alexandru Andries - Comanda Speciala
DYEAR=2005
DGENRE=Blues
TTITLE0=transport in comun
TTITLE1=un pian fericit
TTITLE2=baga mina-n buzunar
TTITLE3=lucruri mici
TTITLE4=glumele mele
TTITLE5=oras si avioane
TTITLE6=cit de frumoasa poti sa fii
TTITLE7=fara sare
TTITLE8=gripa
TTITLE9=musafir
TTITLE10=eu, lia and ilinka
TTITLE11=kapital
TTITLE12=nopatea
TTITLE13=bunicii mei
TTITLE14=prinz in doi
TTITLE15=baiat de baiat
TTITLE16=konfort 3
TTITLE17=sefu'
TTITLE18=bkl
TTITLE19=na votare
EXTD=
EXTT0=
EXTT1=
EXTT2=
EXTT3=
EXTT4=
EXTT5=
EXTT6=
EXTT7=
EXTT8=
EXTT9=
EXTT10=
EXTT11=
EXTT12=
EXTT13=
EXTT14=
EXTT15=
EXTT16=
EXTT17=
EXTT18=
EXTT19=
PLAYORDER=
